<?xml version="1.0" standalone="no"?><!DOCTYPE svg PUBLIC "-//W3C//DTD SVG 1.1//EN" "http://www.w3.org/Graphics/SVG/1.1/DTD/svg11.dtd"><svg t="1775108145221" class="icon" viewBox="0 0 1024 1024" version="1.1" xmlns="http://www.w3.org/2000/svg" p-id="12784" xmlns:xlink="http://www.w3.org/1999/xlink" width="200" height="200"><path d="M441.6 96.33H324.71l-8.18 10.55h133.25l-8.18-10.55zM560.86 117.42H364.34l-8.18-10.54h212.88l-8.18 10.54zM267.16 135.37h116.89l8.18-10.55H258.98l8.18 10.55zM227.53 114.28h116.89l8.18 10.54H219.35l8.18-10.54zM582.65 96.33h116.9l8.18 10.55H574.47l8.18-10.55z" fill="#4c97ff" p-id="12785"></path><path d="M543.02 117.42H659.91l8.19-10.54H534.84l8.18 10.54zM757.1 135.37H640.2l-8.18-10.55h133.25l-8.17 10.55zM796.73 114.28h-116.9l-8.18 10.54h133.26l-8.18-10.54zM582.65 182.54h116.9l8.18-10.55H574.47l8.18 10.55zM463.4 161.45H659.92l8.18 10.54H455.22l8.18-10.54zM757.1 143.5H640.2l-8.18 10.54h133.25l-8.17-10.54zM796.73 164.59h-116.9l-8.18-10.55h133.26l-8.18 10.55zM441.6 182.54H324.71l-8.18-10.55h133.25l-8.18 10.55z" fill="#4c97ff" p-id="12786"></path><path d="M481.24 161.45h-116.9l-8.18 10.54h133.26l-8.18-10.54zM267.16 143.5h116.9l8.18 10.54H258.98l8.18-10.54zM227.53 164.59h116.89l8.18-10.55H219.35l8.18 10.55z" fill="#4c97ff" p-id="12787"></path><path d="M582.4 927.67h116.89l8.18-10.55H574.22l8.18 10.55zM463.14 906.58H659.66l8.18 10.54H454.96l8.18-10.54zM756.84 888.64H639.95l-8.18 10.54h133.25l-8.18-10.54zM796.48 909.73h-116.9l-8.18-10.55h133.25l-8.17 10.55zM441.35 927.67h-116.9l-8.18-10.55h133.26l-8.18 10.55z" fill="#4c97ff" p-id="12788"></path><path d="M480.98 906.58h-116.9l-8.18 10.54h133.26l-8.18-10.54zM266.9 888.64h116.9l8.18 10.54H258.72l8.18-10.54zM227.27 909.73h116.9l8.18-10.55H219.09l8.18 10.55zM441.35 841.47h-116.9l-8.18 10.54h133.26l-8.18-10.54zM560.6 862.55H364.08l-8.18-10.54h212.88l-8.18 10.54zM266.9 880.5h116.9l8.18-10.54H258.72l8.18 10.54zM227.27 859.41h116.9l8.18 10.55H219.09l8.18-10.55zM582.4 841.47h116.89l8.18 10.54H574.22l8.18-10.54z" fill="#4c97ff" p-id="12789"></path><path d="M542.76 862.55h116.9l8.18-10.54H534.58l8.18 10.54zM756.84 880.5H639.95l-8.19-10.54h133.26l-8.18 10.54zM796.47 859.41H679.58l-8.18 10.55h133.25l-8.18-10.55z" fill="#4c97ff" p-id="12790"></path><path d="M702 538.85v-54.29h-81.43v54.29z m0 54.28h-81.43v54.29H702z m0-162.86V376h-81.43v54.28zM566.29 376H322v271.42h244.29zM457.71 511.7H512L403.43 620.28l27.14-108.58h-54.29l108.58-108.57z m271.43 190H294.86a27.14 27.14 0 0 1-27.14-27.14V348.85a27.15 27.15 0 0 1 27.14-27.15h434.28a27.16 27.16 0 0 1 27.15 27.15v325.71a27.15 27.15 0 0 1-27.15 27.14z m0 0" fill="#4c97ff" p-id="12791"></path></svg>