<?xml version="1.0" standalone="no"?><!DOCTYPE svg PUBLIC "-//W3C//DTD SVG 1.1//EN" "http://www.w3.org/Graphics/SVG/1.1/DTD/svg11.dtd"><svg t="1775108719535" class="icon" viewBox="0 0 1024 1024" version="1.1" xmlns="http://www.w3.org/2000/svg" p-id="23700" xmlns:xlink="http://www.w3.org/1999/xlink" width="200" height="200"><path d="M445.06 713.418l106.867-243.904L574 479.185 467.134 723.09z" fill="#0fbd8c" p-id="23701"></path><path d="M502.746 739.861L600.1 517.664l22.073 9.671-97.355 222.198zM383.156 710.604l120.52-289.084 22.244 9.274L405.4 719.878z" fill="#0fbd8c" p-id="23702"></path><path d="M364 859.8h302.1V908H364zM514.7 113C342 113 201.6 253.5 201.6 426.2v24.1c0 130 79.6 241.8 192.7 289.1v96.4h240.9v-96.4c113-47.4 192.7-159.1 192.7-289.1v-24.1c0-172.7-140.5-313.2-313.2-313.2zM587 787.5H442.5V755c46.4 11 98.1 11 144.5 0v32.5z m0-82.3c-46 13-98.6 13-144.5 0V500.8l72.3-66.1 72.3 66.1v204.4z m192.7-254.9c0 102.8-58.8 192.1-144.5 236V479.6L514.7 369.4 394.3 479.6v206.7c-85.7-43.9-144.5-133.2-144.5-236v-24.1c0-146.1 118.9-265 265-265s265 118.9 265 265v24.1z" fill="#0fbd8c" p-id="23703"></path></svg>